<svg xmlns="http://www.w3.org/2000/svg" width="1200" height="720" viewBox="0 0 1200 720" role="img">
  <defs>
    <filter id="shadow" x="-10%" y="-10%" width="120%" height="130%">
      <feDropShadow dx="0" dy="10" stdDeviation="12" flood-color="#0f172a" flood-opacity="0.12"/>
    </filter>
    <linearGradient id="blueFill" x1="0" x2="0" y1="0" y2="1">
      <stop offset="0%" stop-color="#2563eb" stop-opacity="0.24"/>
      <stop offset="100%" stop-color="#2563eb" stop-opacity="0.02"/>
    </linearGradient>
    <linearGradient id="redFill" x1="0" x2="0" y1="0" y2="1">
      <stop offset="0%" stop-color="#e11d48" stop-opacity="0.06"/>
      <stop offset="100%" stop-color="#e11d48" stop-opacity="0.24"/>
    </linearGradient>
  </defs>
  <style>
    text { font-family: Inter, ui-sans-serif, system-ui, -apple-system, Segoe UI, Arial, sans-serif; fill: #172033; }
    .title { font-size: 30px; font-weight: 800; }
    .subtitle { font-size: 14px; fill: #64748b; }
    .axis { stroke: #94a3b8; stroke-width: 1.2; }
    .grid { stroke: #dbe4ee; stroke-width: 1; }
    .tick { font-size: 12px; fill: #64748b; }
    .label { font-size: 13px; fill: #475569; font-weight: 650; }
    .small { font-size: 12px; fill: #64748b; }
    .metric { font-size: 24px; font-weight: 800; }
  </style>
<rect width="1200" height="720" fill="#f7fafc"/>
<rect x="34" y="28" width="1132" height="664" rx="28" fill="#ffffff" filter="url(#shadow)"/>
<text x="70" y="74" class="title">FRG Portfolio Path</text>
<text x="70" y="98" class="subtitle">Growth and drawdown from portfolio values, 2026-01-01 to 2026-04-30.</text>
<line x1="84" x2="1142" y1="360.00" y2="360.00" class="grid"/>
<text x="38" y="364.00" class="tick">-7.8%</text>
<line x1="84" x2="1142" y1="297.00" y2="297.00" class="grid"/>
<text x="38" y="301.00" class="tick">-2.0%</text>
<line x1="84" x2="1142" y1="234.00" y2="234.00" class="grid"/>
<text x="38" y="238.00" class="tick">3.8%</text>
<line x1="84" x2="1142" y1="171.00" y2="171.00" class="grid"/>
<text x="38" y="175.00" class="tick">9.6%</text>
<line x1="84" x2="1142" y1="108.00" y2="108.00" class="grid"/>
<text x="38" y="112.00" class="tick">15.4%</text>
<text x="63.00" y="385" class="tick">Jan 04</text>
<text x="327.60" y="385" class="tick">Feb 02</text>
<text x="601.31" y="385" class="tick">Mar 04</text>
<text x="856.40" y="385" class="tick">Apr 01</text>
<text x="1121.00" y="385" class="tick">Apr 30</text>
<path d="M 84 360 L 84.00 275.41 L 93.12 275.41 L 102.25 276.50 L 111.37 273.09 L 120.50 281.82 L 129.62 259.21 L 156.99 252.46 L 166.12 256.55 L 175.24 265.51 L 184.36 243.71 L 193.49 233.67 L 229.98 259.66 L 239.11 241.48 L 248.23 239.33 L 257.36 236.68 L 284.73 232.15 L 293.85 210.06 L 302.98 202.69 L 312.10 200.88 L 321.22 231.59 L 348.60 218.64 L 357.72 240.78 L 366.84 278.46 L 375.97 280.08 L 385.09 244.83 L 412.46 230.89 L 421.59 235.50 L 430.71 219.15 L 439.83 247.94 L 448.96 212.89 L 485.45 208.47 L 494.58 191.58 L 503.70 193.91 L 512.83 180.88 L 540.20 191.82 L 549.32 184.89 L 558.45 159.59 L 567.57 185.67 L 576.69 191.23 L 604.07 191.98 L 613.19 222.31 L 622.31 206.54 L 631.44 221.37 L 640.56 253.72 L 667.55 230.71 L 676.68 222.99 L 685.80 216.99 L 694.93 245.06 L 704.05 244.76 L 731.42 232.10 L 740.55 221.48 L 749.67 236.32 L 758.79 238.60 L 767.92 259.63 L 795.29 250.82 L 804.41 242.06 L 813.54 242.90 L 822.66 296.52 L 831.79 312.01 L 859.16 332.44 L 868.28 287.63 L 877.40 264.39 L 886.53 270.45 L 923.02 262.15 L 932.15 260.73 L 941.27 224.52 L 950.40 222.82 L 959.52 227.04 L 986.89 220.14 L 996.02 207.21 L 1005.14 198.77 L 1014.26 200.28 L 1023.39 182.82 L 1050.76 192.17 L 1059.88 195.51 L 1069.01 177.38 L 1078.13 184.13 L 1087.26 164.89 L 1114.63 161.69 L 1123.75 178.73 L 1132.88 164.23 L 1142.00 135.56 L 1142 360 Z" fill="url(#blueFill)"/>
<path d="M 84.00 275.41 L 93.12 275.41 L 102.25 276.50 L 111.37 273.09 L 120.50 281.82 L 129.62 259.21 L 156.99 252.46 L 166.12 256.55 L 175.24 265.51 L 184.36 243.71 L 193.49 233.67 L 229.98 259.66 L 239.11 241.48 L 248.23 239.33 L 257.36 236.68 L 284.73 232.15 L 293.85 210.06 L 302.98 202.69 L 312.10 200.88 L 321.22 231.59 L 348.60 218.64 L 357.72 240.78 L 366.84 278.46 L 375.97 280.08 L 385.09 244.83 L 412.46 230.89 L 421.59 235.50 L 430.71 219.15 L 439.83 247.94 L 448.96 212.89 L 485.45 208.47 L 494.58 191.58 L 503.70 193.91 L 512.83 180.88 L 540.20 191.82 L 549.32 184.89 L 558.45 159.59 L 567.57 185.67 L 576.69 191.23 L 604.07 191.98 L 613.19 222.31 L 622.31 206.54 L 631.44 221.37 L 640.56 253.72 L 667.55 230.71 L 676.68 222.99 L 685.80 216.99 L 694.93 245.06 L 704.05 244.76 L 731.42 232.10 L 740.55 221.48 L 749.67 236.32 L 758.79 238.60 L 767.92 259.63 L 795.29 250.82 L 804.41 242.06 L 813.54 242.90 L 822.66 296.52 L 831.79 312.01 L 859.16 332.44 L 868.28 287.63 L 877.40 264.39 L 886.53 270.45 L 923.02 262.15 L 932.15 260.73 L 941.27 224.52 L 950.40 222.82 L 959.52 227.04 L 986.89 220.14 L 996.02 207.21 L 1005.14 198.77 L 1014.26 200.28 L 1023.39 182.82 L 1050.76 192.17 L 1059.88 195.51 L 1069.01 177.38 L 1078.13 184.13 L 1087.26 164.89 L 1114.63 161.69 L 1123.75 178.73 L 1132.88 164.23 L 1142.00 135.56" fill="none" stroke="#2563eb" stroke-width="5" stroke-linecap="round" stroke-linejoin="round"/>
<text x="958" y="119.56" class="metric" fill="#2563eb">12.84%</text>
<text x="84" y="128" class="label">Cumulative return</text>
<line x1="84" x2="1142" y1="640.00" y2="640.00" class="grid"/>
<text x="38" y="644.00" class="tick">-15.8%</text>
<line x1="84" x2="1142" y1="595.50" y2="595.50" class="grid"/>
<text x="38" y="599.50" class="tick">-11.5%</text>
<line x1="84" x2="1142" y1="551.00" y2="551.00" class="grid"/>
<text x="38" y="555.00" class="tick">-7.2%</text>
<line x1="84" x2="1142" y1="506.50" y2="506.50" class="grid"/>
<text x="38" y="510.50" class="tick">-2.9%</text>
<line x1="84" x2="1142" y1="462.00" y2="462.00" class="grid"/>
<text x="38" y="466.00" class="tick">1.4%</text>
<line x1="84" x2="1142" y1="476.83" y2="476.83" stroke="#94a3b8" stroke-width="1.4"/>
<path d="M 84 476.83333333333337 L 84.00 476.83 L 93.12 476.83 L 102.25 477.87 L 111.37 476.83 L 120.50 485.11 L 129.62 476.83 L 156.99 476.83 L 166.12 480.63 L 175.24 488.96 L 184.36 476.83 L 193.49 476.83 L 229.98 500.60 L 239.11 483.98 L 248.23 482.01 L 257.36 479.59 L 284.73 476.83 L 293.85 476.83 L 302.98 476.83 L 312.10 476.83 L 321.22 504.13 L 348.60 492.62 L 357.72 512.29 L 366.84 545.78 L 375.97 547.22 L 385.09 515.89 L 412.46 503.50 L 421.59 507.60 L 430.71 493.07 L 439.83 518.65 L 448.96 487.51 L 485.45 483.58 L 494.58 476.83 L 503.70 478.89 L 512.83 476.83 L 540.20 486.39 L 549.32 480.33 L 558.45 476.83 L 567.57 499.21 L 576.69 503.99 L 604.07 504.63 L 613.19 530.65 L 622.31 517.12 L 631.44 529.85 L 640.56 557.61 L 667.55 537.87 L 676.68 531.24 L 685.80 526.09 L 694.93 550.18 L 704.05 549.92 L 731.42 539.06 L 740.55 529.95 L 749.67 542.68 L 758.79 544.64 L 767.92 562.68 L 795.29 555.13 L 804.41 547.61 L 813.54 548.33 L 822.66 594.34 L 831.79 607.64 L 859.16 625.17 L 868.28 586.72 L 877.40 566.77 L 886.53 571.97 L 923.02 564.85 L 932.15 563.63 L 941.27 532.55 L 950.40 531.09 L 959.52 534.71 L 986.89 528.79 L 996.02 517.70 L 1005.14 510.45 L 1014.26 511.75 L 1023.39 496.77 L 1050.76 504.79 L 1059.88 507.66 L 1069.01 492.10 L 1078.13 497.89 L 1087.26 481.38 L 1114.63 478.63 L 1123.75 493.26 L 1132.88 480.81 L 1142.00 476.83 L 1142 476.83333333333337 Z" fill="url(#redFill)"/>
<path d="M 84.00 476.83 L 93.12 476.83 L 102.25 477.87 L 111.37 476.83 L 120.50 485.11 L 129.62 476.83 L 156.99 476.83 L 166.12 480.63 L 175.24 488.96 L 184.36 476.83 L 193.49 476.83 L 229.98 500.60 L 239.11 483.98 L 248.23 482.01 L 257.36 479.59 L 284.73 476.83 L 293.85 476.83 L 302.98 476.83 L 312.10 476.83 L 321.22 504.13 L 348.60 492.62 L 357.72 512.29 L 366.84 545.78 L 375.97 547.22 L 385.09 515.89 L 412.46 503.50 L 421.59 507.60 L 430.71 493.07 L 439.83 518.65 L 448.96 487.51 L 485.45 483.58 L 494.58 476.83 L 503.70 478.89 L 512.83 476.83 L 540.20 486.39 L 549.32 480.33 L 558.45 476.83 L 567.57 499.21 L 576.69 503.99 L 604.07 504.63 L 613.19 530.65 L 622.31 517.12 L 631.44 529.85 L 640.56 557.61 L 667.55 537.87 L 676.68 531.24 L 685.80 526.09 L 694.93 550.18 L 704.05 549.92 L 731.42 539.06 L 740.55 529.95 L 749.67 542.68 L 758.79 544.64 L 767.92 562.68 L 795.29 555.13 L 804.41 547.61 L 813.54 548.33 L 822.66 594.34 L 831.79 607.64 L 859.16 625.17 L 868.28 586.72 L 877.40 566.77 L 886.53 571.97 L 923.02 564.85 L 932.15 563.63 L 941.27 532.55 L 950.40 531.09 L 959.52 534.71 L 986.89 528.79 L 996.02 517.70 L 1005.14 510.45 L 1014.26 511.75 L 1023.39 496.77 L 1050.76 504.79 L 1059.88 507.66 L 1069.01 492.10 L 1078.13 497.89 L 1087.26 481.38 L 1114.63 478.63 L 1123.75 493.26 L 1132.88 480.81 L 1142.00 476.83" fill="none" stroke="#e11d48" stroke-width="4" stroke-linecap="round" stroke-linejoin="round"/>
<text x="84" y="448" class="label">Drawdown</text>
<text x="954" y="613.17" class="metric" fill="#e11d48">-14.35%</text>
<text x="63.00" y="666" class="tick">Jan 04</text>
<text x="327.60" y="666" class="tick">Feb 02</text>
<text x="601.31" y="666" class="tick">Mar 04</text>
<text x="856.40" y="666" class="tick">Apr 01</text>
<text x="1121.00" y="666" class="tick">Apr 30</text>
</svg>